<?xml version="1.0" encoding="utf-8"?>
<!-- Generator: Adobe Illustrator 28.1.0, SVG Export Plug-In . SVG Version: 6.00 Build 0)  -->
<svg version="1.1" xmlns="http://www.w3.org/2000/svg" xmlns:xlink="http://www.w3.org/1999/xlink" x="0px" y="0px"
	 viewBox="0 0 1000 2000" style="enable-background:new 0 0 1000 2000;" xml:space="preserve">
<style type="text/css">
	.st0{font-family:'MyriadPro-Regular';}
	.st1{font-size:900.0018px;}
</style>
<g id="Layer_1">
	<text transform="matrix(1 0 0 1 281.6987 1709.7474)" class="st0 st1">S</text>
</g>
<g id="Capital_R">
	<g>
		<path d="M324.66,490.11c35.25-7.21,85.72-11.22,133.79-11.22c74.5,0,122.57,13.62,156.22,44.06
			c27.24,24.03,42.46,60.88,42.46,102.54c0,71.3-44.86,118.57-101.74,137.79v2.4c41.66,14.42,66.49,52.87,79.31,108.95
			c17.62,75.3,30.44,127.38,41.66,148.21h-72.1c-8.81-15.22-20.83-61.69-36.05-128.98c-16.02-74.5-44.86-102.54-108.15-104.95
			h-65.69v233.93h-69.7V490.11z M394.35,736.06h71.3c74.5,0,121.77-40.86,121.77-102.54c0-69.7-50.47-100.14-124.17-100.94
			c-33.65,0-57.68,3.2-68.9,6.41V736.06z"/>
	</g>
</g>
</svg>
